<svg width="133" height="133" viewBox="0 0 133 133" fill="none" xmlns="http://www.w3.org/2000/svg">
<g filter="url(#filter0_d_6_273)">
<circle cx="66.5" cy="62.5" r="58.5" fill="#FFF7E4"/>
<path d="M66.7489 78.3452C65.9302 78.5334 65.2185 78.4576 64.6136 78.1178C63.9983 77.7325 63.588 76.9889 63.3825 75.8869C62.9057 72.9798 63.0024 70.2761 63.6726 67.7757C64.3427 65.2753 65.746 62.3191 67.8825 58.907C69.8894 55.7641 71.2574 53.1751 71.9867 51.14C72.7159 49.1049 72.8609 47.1322 72.4218 45.222C71.7003 42.0839 69.5886 40.9174 66.0866 41.7225C63.9946 42.2034 62.5125 43.0469 61.6406 44.253C60.7582 45.4135 60.479 46.6987 60.8031 48.1086L61.5144 50.89C61.6921 51.6631 61.5534 52.4133 61.098 53.1405C60.6777 53.8117 59.8536 54.2885 58.6257 54.5708C57.2158 54.8949 56.0301 54.7365 55.0688 54.0956C54.1424 53.3988 53.5015 52.2772 53.146 50.7309C52.6232 48.4569 52.6932 46.262 53.3561 44.1464C54.0539 41.9749 55.4092 40.0592 57.4218 38.3994C59.4344 36.7396 62.1008 35.528 65.4208 34.7648C69.9234 33.7297 73.6274 33.9076 76.5329 35.2987C79.4735 36.6338 81.362 39.1205 82.1985 42.7589C82.8572 45.6242 82.7255 48.3839 81.8034 51.0379C80.8812 53.692 79.2523 56.6044 76.9167 59.7749C74.9417 62.4316 73.4691 64.5658 72.4989 66.1775C71.5286 67.7892 70.8629 69.1633 70.5017 70.2998C70.1755 71.3804 69.9769 72.5992 69.9058 73.9563C69.8593 75.2119 69.5401 76.2191 68.9484 76.9776C68.3916 77.6802 67.6585 78.136 66.7489 78.3452ZM67.9049 95.2458C65.9038 95.7059 64.2547 95.5104 62.9577 94.6593C61.7062 93.7978 60.8766 92.4802 60.4688 90.7065C59.9983 88.6599 60.1904 86.8919 61.0451 85.4025C61.9453 83.9027 63.4414 82.9123 65.5335 82.4314C67.5346 81.9713 69.1505 82.1265 70.3811 82.8971C71.6467 83.6117 72.4991 84.9241 72.9382 86.8342C73.4192 88.9263 73.2148 90.745 72.3251 92.2903C71.4249 93.7901 69.9515 94.7753 67.9049 95.2458Z" fill="#FEA9B1"/>
</g>
<defs>
<filter id="filter0_d_6_273" x="0" y="0" width="133" height="133" filterUnits="userSpaceOnUse" color-interpolation-filters="sRGB">
<feFlood flood-opacity="0" result="BackgroundImageFix"/>
<feColorMatrix in="SourceAlpha" type="matrix" values="0 0 0 0 0 0 0 0 0 0 0 0 0 0 0 0 0 0 127 0" result="hardAlpha"/>
<feOffset dy="4"/>
<feGaussianBlur stdDeviation="4"/>
<feComposite in2="hardAlpha" operator="out"/>
<feColorMatrix type="matrix" values="0 0 0 0 0 0 0 0 0 0 0 0 0 0 0 0 0 0 0.25 0"/>
<feBlend mode="normal" in2="BackgroundImageFix" result="effect1_dropShadow_6_273"/>
<feBlend mode="normal" in="SourceGraphic" in2="effect1_dropShadow_6_273" result="shape"/>
</filter>
</defs>
</svg>
