<svg width="448" height="149" viewBox="0 0 448 149" fill="none" xmlns="http://www.w3.org/2000/svg">
<g filter="url(#filter0_d_9_389)">
<path d="M29.24 101.35C27.5133 101.35 26.2767 100.977 25.53 100.23C24.7833 99.4367 24.41 97.9667 24.41 95.82C24.41 94.3733 24.55 92.53 24.83 90.29C25.1567 88.0033 25.67 84.8767 26.37 80.91C27.5833 73.5833 28.54 67.2367 29.24 61.87C29.66 58.51 29.87 55.71 29.87 53.47C29.87 51.37 29.1 50.32 27.56 50.32C26.3467 50.32 24.8767 50.95 23.15 52.21C21.47 53.4233 19.6033 55.3833 17.55 58.09C16.8967 58.9767 16.1733 59.42 15.38 59.42C14.7267 59.42 14.1433 59.1167 13.63 58.51C13.1633 57.8567 12.93 57.1333 12.93 56.34C12.93 55.5933 13.07 54.8467 13.35 54.1C13.6767 53.3067 14.19 52.42 14.89 51.44C17.13 48.3133 19.6267 45.91 22.38 44.23C25.1333 42.5033 27.8867 41.64 30.64 41.64C33.2067 41.64 35.1667 42.4567 36.52 44.09C37.92 45.7233 38.62 48.1033 38.62 51.23C38.62 52.49 38.5033 53.9833 38.27 55.71C38.0367 57.39 37.8267 58.7667 37.64 59.84C37.4533 60.9133 37.3133 61.66 37.22 62.08C39.88 54.4733 42.8667 49.1767 46.18 46.19C49.4933 43.1567 53.1333 41.64 57.1 41.64C60.1333 41.64 62.5133 42.7133 64.24 44.86C66.0133 47.0067 66.9 50.04 66.9 53.96C66.9 55.5 66.69 57.4133 66.27 59.7C68.6033 53.26 71.3333 48.64 74.46 45.84C77.5867 43.04 81.18 41.64 85.24 41.64C88.5067 41.64 91.0033 42.69 92.73 44.79C94.5033 46.89 95.39 49.83 95.39 53.61C95.39 55.6633 95.0867 58.16 94.48 61.1L90.21 81.12C89.7433 83.4533 89.51 85.46 89.51 87.14C89.51 89.1 89.9533 90.57 90.84 91.55C91.7733 92.53 93.0567 93.02 94.69 93.02C96.23 93.02 97.7233 92.5067 99.17 91.48C100.663 90.4533 102.413 88.75 104.42 86.37C104.98 85.7167 105.61 85.39 106.31 85.39C106.917 85.39 107.383 85.67 107.71 86.23C108.083 86.79 108.27 87.56 108.27 88.54C108.27 90.36 107.827 91.8067 106.94 92.88C104.513 95.82 102.11 97.9667 99.73 99.32C97.35 100.673 94.8533 101.35 92.24 101.35C88.2733 101.35 85.17 100.183 82.93 97.85C80.69 95.47 79.57 92.2967 79.57 88.33C79.57 85.5767 80.13 81.5867 81.25 76.36L84.05 63.55C84.1433 63.13 84.3067 62.3833 84.54 61.31C84.7733 60.2367 84.96 59.2333 85.1 58.3C85.24 57.32 85.31 56.3633 85.31 55.43C85.31 53.7967 84.9833 52.5833 84.33 51.79C83.7233 50.95 82.8367 50.53 81.67 50.53C79.4767 50.53 77.1667 51.9533 74.74 54.8C72.36 57.6 70.0733 62.2667 67.88 68.8C65.7333 75.3333 63.9833 83.8267 62.63 94.28C62.3033 97.08 61.72 98.97 60.88 99.95C60.0867 100.883 58.78 101.35 56.96 101.35C55.3733 101.35 54.2067 100.977 53.46 100.23C52.76 99.4833 52.41 98.0833 52.41 96.03C52.41 94.1167 52.6667 91.62 53.18 88.54C53.6933 85.4133 54.3467 81.75 55.14 77.55C57.2867 66.2567 58.36 58.9767 58.36 55.71C58.36 53.9367 58.01 52.63 57.31 51.79C56.6567 50.95 55.6533 50.53 54.3 50.53C52.0133 50.53 49.6567 51.8367 47.23 54.45C44.8033 57.0167 42.4233 61.6133 40.09 68.24C37.8033 74.82 35.89 83.7333 34.35 94.98C34.0233 97.36 33.5333 99.0167 32.88 99.95C32.2733 100.883 31.06 101.35 29.24 101.35ZM133.85 85.39C134.456 85.39 134.923 85.67 135.25 86.23C135.623 86.79 135.81 87.56 135.81 88.54C135.81 90.4067 135.366 91.8533 134.48 92.88C132.753 94.98 130.303 96.9167 127.13 98.69C124.003 100.463 120.643 101.35 117.05 101.35C112.15 101.35 108.346 100.02 105.64 97.36C102.933 94.7 101.58 91.06 101.58 86.44C101.58 83.22 102.256 80.2333 103.61 77.48C104.963 74.68 106.83 72.4633 109.21 70.83C111.636 69.1967 114.366 68.38 117.4 68.38C120.106 68.38 122.276 69.1967 123.91 70.83C125.543 72.4167 126.36 74.5867 126.36 77.34C126.36 80.56 125.193 83.3367 122.86 85.67C120.573 87.9567 116.676 89.7767 111.17 91.13C112.336 93.2767 114.553 94.35 117.82 94.35C119.92 94.35 122.3 93.6267 124.96 92.18C127.666 90.6867 130 88.75 131.96 86.37C132.52 85.7167 133.15 85.39 133.85 85.39ZM116.21 75.24C114.483 75.24 113.013 76.2433 111.8 78.25C110.633 80.2567 110.05 82.6833 110.05 85.53V85.67C112.803 85.0167 114.973 84.0367 116.56 82.73C118.146 81.4233 118.94 79.9067 118.94 78.18C118.94 77.2933 118.683 76.5933 118.17 76.08C117.703 75.52 117.05 75.24 116.21 75.24ZM135.08 101.35C133.307 101.35 132.047 100.417 131.3 98.55C130.6 96.6833 130.25 93.6967 130.25 89.59C130.25 83.5233 131.113 77.76 132.84 72.3C133.26 70.9467 133.937 69.9667 134.87 69.36C135.85 68.7067 137.203 68.38 138.93 68.38C139.863 68.38 140.517 68.4967 140.89 68.73C141.263 68.9633 141.45 69.4067 141.45 70.06C141.45 70.8067 141.1 72.4867 140.4 75.1C139.933 76.9667 139.56 78.6 139.28 80C139 81.3533 138.767 83.0567 138.58 85.11C139.84 81.47 141.333 78.39 143.06 75.87C144.833 73.35 146.63 71.4833 148.45 70.27C150.317 69.01 152.067 68.38 153.7 68.38C155.333 68.38 156.477 68.7533 157.13 69.5C157.83 70.2467 158.18 71.39 158.18 72.93C158.18 74.4233 157.737 77.13 156.85 81.05C156.477 82.73 156.22 83.99 156.08 84.83C158.413 79.09 161.003 74.9133 163.85 72.3C166.697 69.6867 169.357 68.38 171.83 68.38C174.863 68.38 176.38 69.8967 176.38 72.93C176.38 74.75 175.867 78.04 174.84 82.8C173.953 86.86 173.51 89.5433 173.51 90.85C173.51 92.7167 174.187 93.65 175.54 93.65C176.473 93.65 177.57 93.09 178.83 91.97C180.137 90.8033 181.863 88.9367 184.01 86.37C184.57 85.7167 185.2 85.39 185.9 85.39C186.507 85.39 186.973 85.67 187.3 86.23C187.673 86.79 187.86 87.56 187.86 88.54C187.86 90.4067 187.417 91.8533 186.53 92.88C184.523 95.3533 182.353 97.3833 180.02 98.97C177.733 100.557 175.12 101.35 172.18 101.35C169.8 101.35 168.003 100.673 166.79 99.32C165.577 97.92 164.97 95.9133 164.97 93.3C164.97 91.9933 165.297 89.66 165.95 86.3C166.557 83.36 166.86 81.33 166.86 80.21C166.86 79.4633 166.603 79.09 166.09 79.09C165.483 79.09 164.62 79.8833 163.5 81.47C162.38 83.01 161.26 85.0633 160.14 87.63C159.02 90.1967 158.11 92.9033 157.41 95.75C156.897 97.99 156.29 99.4833 155.59 100.23C154.937 100.977 153.863 101.35 152.37 101.35C150.83 101.35 149.663 100.627 148.87 99.18C148.123 97.6867 147.75 95.89 147.75 93.79C147.75 92.0167 147.983 89.45 148.45 86.09C148.823 83.1033 149.01 81.1433 149.01 80.21C149.01 79.4633 148.753 79.09 148.24 79.09C147.54 79.09 146.653 79.93 145.58 81.61C144.507 83.29 143.457 85.4367 142.43 88.05C141.45 90.6633 140.657 93.23 140.05 95.75C139.537 97.9433 138.93 99.4367 138.23 100.23C137.577 100.977 136.527 101.35 135.08 101.35ZM217.9 79.51C218.507 79.51 218.973 79.8133 219.3 80.42C219.627 81.0267 219.79 81.7967 219.79 82.73C219.79 84.97 219.113 86.3 217.76 86.72C214.96 87.7 211.88 88.26 208.52 88.4C207.633 92.32 205.883 95.47 203.27 97.85C200.657 100.183 197.693 101.35 194.38 101.35C191.58 101.35 189.177 100.673 187.17 99.32C185.21 97.9667 183.717 96.17 182.69 93.93C181.663 91.69 181.15 89.2633 181.15 86.65C181.15 83.1033 181.827 79.9533 183.18 77.2C184.533 74.4 186.4 72.23 188.78 70.69C191.16 69.1033 193.797 68.31 196.69 68.31C200.237 68.31 203.083 69.5467 205.23 72.02C207.423 74.4467 208.707 77.4567 209.08 81.05C211.273 80.91 213.887 80.4433 216.92 79.65C217.293 79.5567 217.62 79.51 217.9 79.51ZM194.94 93.93C196.433 93.93 197.717 93.3233 198.79 92.11C199.91 90.8967 200.657 89.1467 201.03 86.86C199.583 85.88 198.463 84.5967 197.67 83.01C196.923 81.4233 196.55 79.7433 196.55 77.97C196.55 77.2233 196.62 76.4767 196.76 75.73H196.41C194.543 75.73 192.98 76.64 191.72 78.46C190.507 80.2333 189.9 82.7533 189.9 86.02C189.9 88.5867 190.39 90.5467 191.37 91.9C192.397 93.2533 193.587 93.93 194.94 93.93ZM218.752 101.35C216.979 101.35 215.719 100.417 214.972 98.55C214.272 96.6833 213.922 93.6967 213.922 89.59C213.922 83.5233 214.785 77.76 216.512 72.3C216.932 70.9467 217.609 69.9667 218.542 69.36C219.522 68.7067 220.875 68.38 222.602 68.38C223.535 68.38 224.189 68.4967 224.562 68.73C224.935 68.9633 225.122 69.4067 225.122 70.06C225.122 70.8067 224.772 72.4867 224.072 75.1C223.605 76.9667 223.232 78.6 222.952 80C222.672 81.4 222.439 83.1267 222.252 85.18C223.792 81.1667 225.519 77.9 227.432 75.38C229.345 72.86 231.212 71.0633 233.032 69.99C234.899 68.9167 236.602 68.38 238.142 68.38C241.175 68.38 242.692 69.8967 242.692 72.93C242.692 73.5367 242.482 75.0067 242.062 77.34C241.689 79.2067 241.502 80.3733 241.502 80.84C241.502 82.4733 242.085 83.29 243.252 83.29C244.559 83.29 246.239 82.2633 248.292 80.21C248.899 79.6033 249.529 79.3 250.182 79.3C250.789 79.3 251.255 79.58 251.582 80.14C251.955 80.6533 252.142 81.3533 252.142 82.24C252.142 83.9667 251.675 85.32 250.742 86.3C249.435 87.6533 247.895 88.82 246.122 89.8C244.395 90.7333 242.552 91.2 240.592 91.2C238.119 91.2 236.229 90.57 234.922 89.31C233.662 88.05 233.032 86.3467 233.032 84.2C233.032 83.5 233.102 82.8 233.242 82.1C233.335 81.1667 233.382 80.5367 233.382 80.21C233.382 79.4633 233.125 79.09 232.612 79.09C231.912 79.09 230.979 79.8833 229.812 81.47C228.692 83.01 227.572 85.0633 226.452 87.63C225.332 90.1967 224.422 92.9033 223.722 95.75C223.209 97.9433 222.602 99.4367 221.902 100.23C221.249 100.977 220.199 101.35 218.752 101.35ZM270.137 68.38C271.211 68.38 271.957 68.52 272.377 68.8C272.797 69.08 273.007 69.5467 273.007 70.2C273.007 71.32 272.401 75.31 271.187 82.17C270.114 88.75 269.484 92.6467 269.297 93.86C267.571 105.853 265.191 115.35 262.157 122.35C259.124 129.35 255.087 132.85 250.047 132.85C247.667 132.85 245.731 132.103 244.237 130.61C242.744 129.163 241.997 127.25 241.997 124.87C241.997 122.677 242.487 120.437 243.467 118.15C244.494 115.863 246.361 113.227 249.067 110.24C251.821 107.3 255.694 103.917 260.687 100.09L260.897 98.48C261.224 96.7533 261.597 94.28 262.017 91.06C261.084 94.42 259.777 96.9867 258.097 98.76C256.417 100.487 254.644 101.35 252.777 101.35C250.677 101.35 248.951 100.393 247.597 98.48C246.291 96.52 245.637 94.0933 245.637 91.2C245.637 87.7 245.871 84.5033 246.337 81.61C246.804 78.67 247.574 75.5667 248.647 72.3C249.114 70.9 249.767 69.8967 250.607 69.29C251.447 68.6833 252.777 68.38 254.597 68.38C255.624 68.38 256.324 68.5433 256.697 68.87C257.117 69.1967 257.327 69.6867 257.327 70.34C257.327 70.7133 257.071 71.9733 256.557 74.12C256.091 75.8467 255.717 77.41 255.437 78.81C255.064 80.7233 254.737 82.5667 254.457 84.34C254.177 86.0667 254.037 87.49 254.037 88.61C254.037 90.3833 254.527 91.27 255.507 91.27C256.207 91.27 257.071 90.57 258.097 89.17C259.171 87.77 260.291 85.6467 261.457 82.8C262.671 79.9533 263.837 76.4533 264.957 72.3C265.331 70.9 265.891 69.8967 266.637 69.29C267.431 68.6833 268.597 68.38 270.137 68.38ZM250.817 126.06C251.984 126.06 253.291 124.707 254.737 122C256.184 119.293 257.631 114.79 259.077 108.49C255.484 111.523 252.871 114.277 251.237 116.75C249.651 119.27 248.857 121.463 248.857 123.33C248.857 124.123 248.997 124.777 249.277 125.29C249.604 125.803 250.117 126.06 250.817 126.06ZM315.138 101.56C308.931 101.56 303.961 100.393 300.228 98.06C296.495 95.68 294.628 92.0633 294.628 87.21C294.628 84.6433 295.071 82.6833 295.958 81.33C296.845 79.9767 298.151 79.3 299.878 79.3C301.138 79.3 302.165 79.6267 302.958 80.28C303.751 80.9333 304.148 81.7733 304.148 82.8C304.148 83.7333 304.078 84.55 303.938 85.25C303.938 85.4367 303.891 85.7633 303.798 86.23C303.751 86.6967 303.728 87.1867 303.728 87.7C303.728 89.8 304.778 91.3633 306.878 92.39C309.025 93.4167 312.011 93.93 315.838 93.93C319.805 93.93 322.908 93.23 325.148 91.83C327.388 90.3833 328.508 88.3767 328.508 85.81C328.508 84.2233 327.995 82.87 326.968 81.75C325.941 80.5833 324.658 79.6267 323.118 78.88C321.578 78.0867 319.408 77.13 316.608 76.01C313.015 74.61 310.075 73.28 307.788 72.02C305.548 70.76 303.611 69.0567 301.978 66.91C300.391 64.7167 299.598 62.01 299.598 58.79C299.598 55.43 300.485 52.4433 302.258 49.83C304.078 47.2167 306.668 45.1867 310.028 43.74C313.435 42.2933 317.425 41.57 321.998 41.57C325.405 41.57 328.531 42.0833 331.378 43.11C334.225 44.09 336.488 45.6067 338.168 47.66C339.895 49.7133 340.758 52.2333 340.758 55.22C340.758 58.16 340.315 60.3767 339.428 61.87C338.541 63.3633 337.235 64.11 335.508 64.11C334.295 64.11 333.268 63.7367 332.428 62.99C331.635 62.2433 331.238 61.3567 331.238 60.33C331.238 59.4433 331.308 58.6267 331.448 57.88C331.588 56.48 331.658 55.5933 331.658 55.22C331.658 53.26 330.701 51.7667 328.788 50.74C326.875 49.7133 324.495 49.2 321.648 49.2C317.635 49.2 314.555 49.9467 312.408 51.44C310.308 52.8867 309.258 54.94 309.258 57.6C309.258 59.3733 309.795 60.89 310.868 62.15C311.988 63.41 313.365 64.46 314.998 65.3C316.631 66.14 318.918 67.1433 321.858 68.31C325.405 69.7567 328.251 71.0633 330.398 72.23C332.545 73.3967 334.365 74.9833 335.858 76.99C337.398 78.9967 338.168 81.47 338.168 84.41C338.168 89.9167 336.068 94.1633 331.868 97.15C327.715 100.09 322.138 101.56 315.138 101.56ZM352.753 101.35C349.86 101.35 347.55 100.3 345.823 98.2C344.097 96.1 343.233 93.3467 343.233 89.94C343.233 86.2067 344.097 82.6833 345.823 79.37C347.55 76.01 349.837 73.3267 352.683 71.32C355.577 69.2667 358.633 68.24 361.853 68.24C362.88 68.24 363.557 68.45 363.883 68.87C364.257 69.2433 364.56 69.9433 364.793 70.97C365.773 70.7833 366.8 70.69 367.873 70.69C370.16 70.69 371.303 71.5067 371.303 73.14C371.303 74.12 370.953 76.4533 370.253 80.14C369.18 85.5067 368.643 89.24 368.643 91.34C368.643 92.04 368.807 92.6 369.133 93.02C369.507 93.44 369.973 93.65 370.533 93.65C371.42 93.65 372.493 93.09 373.753 91.97C375.013 90.8033 376.717 88.9367 378.863 86.37C379.423 85.7167 380.053 85.39 380.753 85.39C381.36 85.39 381.827 85.67 382.153 86.23C382.527 86.79 382.713 87.56 382.713 88.54C382.713 90.4067 382.27 91.8533 381.383 92.88C379.47 95.26 377.44 97.2667 375.293 98.9C373.147 100.533 371.07 101.35 369.063 101.35C367.523 101.35 366.1 100.837 364.793 99.81C363.533 98.7367 362.577 97.29 361.923 95.47C359.497 99.39 356.44 101.35 352.753 101.35ZM355.273 94.28C356.3 94.28 357.28 93.6733 358.213 92.46C359.147 91.2467 359.823 89.6367 360.243 87.63L362.833 74.75C360.873 74.7967 359.053 75.5433 357.373 76.99C355.74 78.39 354.433 80.2567 353.453 82.59C352.473 84.9233 351.983 87.3967 351.983 90.01C351.983 91.4567 352.263 92.53 352.823 93.23C353.43 93.93 354.247 94.28 355.273 94.28ZM390.394 101.35C385.821 101.35 382.251 100.067 379.684 97.5C377.164 94.8867 375.904 91.4567 375.904 87.21C375.904 83.43 376.651 80.1167 378.144 77.27C379.637 74.4233 381.574 72.23 383.954 70.69C386.334 69.15 388.831 68.38 391.444 68.38C394.011 68.38 395.994 69.15 397.394 70.69C398.841 72.1833 399.564 74.12 399.564 76.5C399.564 78.46 399.121 80.1167 398.234 81.47C397.394 82.8233 396.274 83.5 394.874 83.5C393.987 83.5 393.264 83.29 392.704 82.87C392.191 82.45 391.934 81.8667 391.934 81.12C391.934 80.7933 391.981 80.42 392.074 80C392.167 79.58 392.237 79.2767 392.284 79.09C392.517 78.39 392.634 77.7367 392.634 77.13C392.634 76.5233 392.471 76.0567 392.144 75.73C391.864 75.4033 391.444 75.24 390.884 75.24C389.811 75.24 388.807 75.73 387.874 76.71C386.941 77.6433 386.194 78.9267 385.634 80.56C385.074 82.1933 384.794 83.99 384.794 85.95C384.794 91.3633 387.151 94.07 391.864 94.07C393.777 94.07 395.831 93.44 398.024 92.18C400.264 90.8733 402.457 88.9367 404.604 86.37C405.164 85.7167 405.794 85.39 406.494 85.39C407.101 85.39 407.567 85.67 407.894 86.23C408.267 86.79 408.454 87.56 408.454 88.54C408.454 90.3133 408.011 91.76 407.124 92.88C404.931 95.5867 402.294 97.6867 399.214 99.18C396.181 100.627 393.241 101.35 390.394 101.35ZM432.546 93.72C434.459 94.0933 435.416 95.1433 435.416 96.87C435.416 98.0367 434.879 99.0867 433.806 100.02C432.779 100.907 431.286 101.35 429.326 101.35C425.966 101.35 423.212 100.323 421.066 98.27C418.966 96.17 417.916 93.44 417.916 90.08C417.916 88.26 418.849 86.9533 420.716 86.16C422.769 85.2733 424.239 84.34 425.126 83.36C426.012 82.3333 426.456 81.0967 426.456 79.65C426.456 78.81 426.269 78.18 425.896 77.76C425.569 77.34 425.149 77.13 424.636 77.13C423.376 77.13 421.976 78.04 420.436 79.86C418.942 81.68 417.542 84.0367 416.236 86.93C414.929 89.7767 413.902 92.7167 413.156 95.75C412.642 97.9433 412.036 99.4367 411.336 100.23C410.682 100.977 409.632 101.35 408.186 101.35C406.739 101.35 405.666 100.837 404.966 99.81C404.312 98.7367 403.869 97.1033 403.636 94.91C403.402 92.7167 403.286 89.4967 403.286 85.25C403.286 78.0633 404.009 70.5733 405.456 62.78C406.949 54.9867 409.119 48.4533 411.966 43.18C414.859 37.86 418.312 35.2 422.326 35.2C424.472 35.2 426.199 36.1333 427.506 38C428.859 39.82 429.536 42.2 429.536 45.14C429.536 49.8533 428.159 54.7533 425.406 59.84C422.652 64.88 418.172 70.7833 411.966 77.55C411.826 79.9767 411.756 82.4733 411.756 85.04C413.996 79.2067 416.562 74.9833 419.456 72.37C422.349 69.71 425.056 68.38 427.576 68.38C429.909 68.38 431.776 69.1733 433.176 70.76C434.622 72.3467 435.346 74.3067 435.346 76.64C435.346 79.2067 434.692 81.5633 433.386 83.71C432.079 85.8567 429.839 87.77 426.666 89.45C426.946 90.85 427.506 91.83 428.346 92.39C429.232 92.9033 430.632 93.3467 432.546 93.72ZM420.856 42.13C420.016 42.13 419.082 43.3433 418.056 45.77C417.029 48.15 416.026 51.3933 415.046 55.5C414.112 59.56 413.342 63.9933 412.736 68.8C415.629 65.3933 418.009 61.6833 419.876 57.67C421.789 53.6567 422.746 50.0167 422.746 46.75C422.746 45.2567 422.582 44.1133 422.256 43.32C421.929 42.5267 421.462 42.13 420.856 42.13Z" fill="#FFF7E4"/>
</g>
<defs>
<filter id="filter0_d_9_389" x="0.830053" y="27.1" width="446.685" height="121.85" filterUnits="userSpaceOnUse" color-interpolation-filters="sRGB">
<feFlood flood-opacity="0" result="BackgroundImageFix"/>
<feColorMatrix in="SourceAlpha" type="matrix" values="0 0 0 0 0 0 0 0 0 0 0 0 0 0 0 0 0 0 127 0" result="hardAlpha"/>
<feOffset dy="4"/>
<feGaussianBlur stdDeviation="6.05"/>
<feComposite in2="hardAlpha" operator="out"/>
<feColorMatrix type="matrix" values="0 0 0 0 0 0 0 0 0 0 0 0 0 0 0 0 0 0 0.25 0"/>
<feBlend mode="normal" in2="BackgroundImageFix" result="effect1_dropShadow_9_389"/>
<feBlend mode="normal" in="SourceGraphic" in2="effect1_dropShadow_9_389" result="shape"/>
</filter>
</defs>
</svg>
